<?xml version="1.0" encoding="UTF-8"?> <svg xmlns="http://www.w3.org/2000/svg" width="158" height="27" viewBox="0 0 158 27" fill="none"><path d="M77.7473 0H69.5298V9.0922C69.5298 9.8258 69.5636 10.6578 69.6543 12.2391L60.296 0.0605874H53.474V26H61.6916V17.4462L61.6121 13.8953L70.9265 25.9394H77.7473V0Z" fill="black"></path><path d="M8.986 0.063132H0L10.6402 25.9369H18.2088L28.9757 0.063132H19.9823L17.0552 7.85551L14.4913 15.279L11.9766 7.85515L8.986 0.063132Z" fill="black"></path><path fill-rule="evenodd" clip-rule="evenodd" d="M90.8412 0.0605897H79.6703V25.9394H90.8412C95.3861 25.9394 98.7731 24.4506 101.02 22.0181C103.259 19.594 104.306 16.2983 104.306 12.788C104.306 9.30063 103.224 6.10644 100.964 3.78133C98.6996 1.45198 95.3158 0.0605897 90.8412 0.0605897ZM87.8275 18.8422V7.09717H90.8412C92.84 7.09717 94.1502 7.7547 94.9721 8.72915C95.8085 9.72071 96.2089 11.123 96.2089 12.7274C96.2089 14.3421 95.8337 15.8782 94.9957 16.9952C94.1778 18.0854 92.8713 18.8422 90.8412 18.8422H87.8275Z" fill="black"></path><path fill-rule="evenodd" clip-rule="evenodd" d="M121.355 0.0605897H113.565L101.974 26H110.688L112.317 21.9407H122.482L124.112 26H132.883L121.355 0.0605897ZM119.701 14.8436H115.165L117.455 9.20699L119.701 14.8436Z" fill="black"></path><path fill-rule="evenodd" clip-rule="evenodd" d="M146.493 0.0605897H133.934V25.9394H142.091V19.3355H146.499L146.504 19.3354C149.911 19.2727 152.547 18.2341 154.334 16.4894C156.122 14.7436 157 12.3497 157 9.69806C157 7.13752 156.137 4.71714 154.362 2.93538C152.584 1.1502 149.944 0.0605897 146.493 0.0605897ZM142.091 12.1778V7.27893H146.493C147.337 7.27893 147.902 7.56823 148.262 7.98023C148.633 8.40403 148.843 9.02114 148.843 9.75865C148.843 10.461 148.636 11.0629 148.265 11.481C147.904 11.8881 147.338 12.1778 146.493 12.1778H142.091Z" fill="black"></path><path d="M51.0682 0H30.5976V18.7373L30.5981 18.7493C30.7305 22.1397 33.3222 25.7444 38.4256 25.939L38.4372 25.9394H51.5511V18.8422H38.6944V16.3062H50.3439V9.39083H38.6944V7.09717H51.0682V0Z" fill="black"></path><path d="M117.548 16.6735C115.253 16.6735 113.38 14.8757 113.38 12.6719C113.38 10.4681 115.253 8.67022 117.548 8.67022C119.844 8.67022 121.717 10.4681 121.717 12.6719C121.717 14.9337 119.844 16.6735 117.548 16.6735Z" fill="#FFC800"></path></svg> 